<?xml version="1.0" encoding="UTF-8" standalone="no"?> 
<!DOCTYPE svg PUBLIC "-//W3C//DTD SVG 1.1//EN" "http://www.w3.org/Graphics/SVG/1.1/DTD/svg11.dtd">
<svg xmlns="http://www.w3.org/2000/svg" xml:space="preserve" height="100%" viewBox="0 0 512 100" version="1.1" style="fill-rule:nonzero;clip-rule:evenodd;stroke-linecap:round;stroke-linejoin:round;" width="100%" xmlns:xlink="http://www.w3.org/1999/xlink">
<path fill="#56698f" opacity="1" d="M80.5648+42.1633L99.9155+76.3968L275.635+76.3022L258.876+42.1633L80.5648+42.1633Z"/>
<path d="M275.637+75.8117L259.009+42.884L275.637+75.8117Z" opacity="0.70825" fill="#56698f"/>
<path d="M153.825+23.8636C153.825+21.6061+154.431+19.8388+155.643+18.5616C156.855+17.2844+158.42+16.6458+160.337+16.6458C161.593+16.6458+162.725+16.9458+163.733+17.5457C164.741+18.1457+165.509+18.9822+166.038+20.0552C166.567+21.1283+166.831+22.3452+166.831+23.7059C166.831+25.0851+166.553+26.319+165.997+27.4075C165.44+28.4961+164.651+29.3202+163.631+29.88C162.61+30.4397+161.509+30.7196+160.328+30.7196C159.048+30.7196+157.904+30.4103+156.895+29.7918C155.887+29.1733+155.123+28.3291+154.604+27.2591C154.084+26.1891+153.825+25.0573+153.825+23.8636ZM155.68+23.8914C155.68+25.5304+156.121+26.8215+157.002+27.7647C157.883+28.7079+158.989+29.1795+160.319+29.1795C161.673+29.1795+162.788+28.7033+163.663+27.7508C164.538+26.7983+164.976+25.4469+164.976+23.6966C164.976+22.5895+164.789+21.6231+164.415+20.7974C164.041+19.9718+163.493+19.3316+162.773+18.877C162.052+18.4224+161.243+18.1951+160.347+18.1951C159.073+18.1951+157.976+18.6327+157.058+19.5079C156.139+20.383+155.68+21.8442+155.68+23.8914Z" opacity="1" fill="#939393"/>
<path d="M169.169+16.887L179.866+16.887L179.866+30.4876L178.057+30.4876L178.057+18.492L170.969+18.492L170.969+30.4876L169.169+30.4876L169.169+16.887Z" fill="#939393" opacity="1"/>
<path d="M182.807+30.4876L182.807+16.887L187.937+16.887C188.84+16.887+189.53+16.9303+190.006+17.0169C190.674+17.1282+191.234+17.3401+191.685+17.6524C192.137+17.9648+192.5+18.4023+192.776+18.9652C193.051+19.528+193.188+20.1465+193.188+20.8206C193.188+21.9772+192.82+22.956+192.084+23.7569C191.348+24.5579+190.019+24.9583+188.095+24.9583L184.607+24.9583L184.607+30.4876L182.807+30.4876ZM184.607+23.3533L188.123+23.3533C189.286+23.3533+190.111+23.1369+190.6+22.7039C191.089+22.271+191.333+21.6618+191.333+20.8763C191.333+20.3073+191.189+19.8202+190.902+19.4151C190.614+19.01+190.235+18.7425+189.765+18.6126C189.462+18.5322+188.902+18.492+188.086+18.492L184.607+18.492L184.607+23.3533Z" opacity="1" fill="#939393"/>
<path fill="#939393" d="M195.508+16.887L197.308+16.887L197.308+22.8431C198.13+22.8431+198.708+22.6838+199.042+22.3653C199.376+22.0468+199.803+21.2814+200.323+20.0692C200.7+19.1785+201.011+18.5492+201.255+18.1812C201.499+17.8132+201.847+17.504+202.299+17.2535C202.75+17.003+203.248+16.8778+203.792+16.8778C204.485+16.8778+204.85+16.8839+204.887+16.8963L204.887+18.4549C204.825+18.4549+204.705+18.4518+204.525+18.4456C204.327+18.4394+204.207+18.4364+204.164+18.4364C203.588+18.4364+203.162+18.5755+202.883+18.8538C202.599+19.1322+202.274+19.7259+201.909+20.6351C201.451+21.7855+201.065+22.5107+200.749+22.8106C200.434+23.1106+200.057+23.3503+199.618+23.5296C200.496+23.7708+201.362+24.581+202.215+25.9603L205.017+30.4876L202.781+30.4876L200.508+26.7952C199.884+25.7747+199.361+25.0743+198.94+24.6939C198.52+24.3135+197.976+24.1234+197.308+24.1234L197.308+30.4876L195.508+30.4876L195.508+16.887Z" opacity="1"/>
<path opacity="1" fill="#56698f" d="M285.596+42.6124L287.764+42.6124L287.764+47.1827C288.247+47.1339+288.574+47.0094+288.745+46.8092C288.916+46.609+289.18+46.0523+289.536+45.1392C289.986+43.9771+290.437+43.2545+290.891+42.9713C291.341+42.6881+292.066+42.5465+293.067+42.5465C293.115+42.5465+293.22+42.544+293.382+42.5392L293.382+44.1432L293.074+44.1358C292.63+44.1358+292.305+44.1908+292.1+44.3006C291.895+44.4105+291.729+44.5777+291.602+44.8023C291.475+45.0269+291.287+45.4884+291.038+46.1866C290.906+46.5577+290.763+46.8678+290.609+47.1168C290.455+47.3658+290.183+47.6002+289.793+47.8199C290.276+47.9566+290.675+48.2325+290.99+48.6475C291.305+49.0626+291.651+49.6485+292.027+50.4054L293.491+53.3497L290.943+53.3497L289.661+50.5738C289.641+50.5348+289.6+50.4591+289.536+50.3468C289.512+50.3077+289.422+50.1392+289.265+49.8414C288.987+49.3141+288.759+48.9845+288.58+48.8526C288.402+48.7208+288.13+48.6524+287.764+48.6475L287.764+53.3497L285.596+53.3497L285.596+42.6124Z"/>
<path fill="#56698f" opacity="1" d="M294.77+48.047C294.77+46.9532+294.934+46.0352+295.261+45.2931C295.505+44.7462+295.838+44.2555+296.261+43.8209C296.683+43.3863+297.146+43.0641+297.648+42.8541C298.317+42.5709+299.089+42.4293+299.963+42.4293C301.545+42.4293+302.811+42.92+303.761+43.9015C304.71+44.8829+305.185+46.2476+305.185+47.9957C305.185+49.7291+304.714+51.0853+303.772+52.0643C302.829+53.0433+301.569+53.5328+299.992+53.5328C298.396+53.5328+297.126+53.0457+296.184+52.0716C295.241+51.0975+294.77+49.7559+294.77+48.047ZM297.004+47.9737C297.004+49.1895+297.285+50.1112+297.846+50.7386C298.408+51.3661+299.121+51.6798+299.985+51.6798C300.849+51.6798+301.558+51.3685+302.113+50.7459C302.667+50.1234+302.944+49.1895+302.944+47.9444C302.944+46.714+302.674+45.796+302.135+45.1905C301.595+44.585+300.878+44.2823+299.985+44.2823C299.091+44.2823+298.371+44.5887+297.824+45.2015C297.277+45.8143+297.004+46.7384+297.004+47.9737Z"/>
<path fill="#56698f" opacity="1" d="M307.372+53.3497L307.372+42.6124L310.851+42.6124C312.169+42.6124+313.029+42.6661+313.429+42.7735C314.044+42.9347+314.56+43.285+314.975+43.8246C315.39+44.3641+315.597+45.0611+315.597+45.9156C315.597+46.5748+315.477+47.129+315.238+47.5782C314.999+48.0274+314.695+48.3802+314.326+48.6366C313.958+48.8929+313.583+49.0626+313.202+49.1456C312.685+49.2481+311.935+49.2994+310.954+49.2994L309.54+49.2994L309.54+53.3497L307.372+53.3497ZM309.54+44.4288L309.54+47.4757L310.727+47.4757C311.581+47.4757+312.152+47.4195+312.44+47.3072C312.728+47.1949+312.954+47.0191+313.118+46.7799C313.281+46.5406+313.363+46.2623+313.363+45.9449C313.363+45.5543+313.248+45.232+313.019+44.9781C312.789+44.7242+312.499+44.5655+312.147+44.502C311.889+44.4532+311.369+44.4288+310.587+44.4288L309.54+44.4288Z"/>
<path d="M317.901+42.6124L326.441+42.6124L326.441+53.3497L324.273+53.3497L324.273+44.4142L320.069+44.4142L320.069+53.3497L317.901+53.3497L317.901+42.6124Z" fill="#56698f" opacity="1"/>
<path fill="#56698f" d="M328.709+48.047C328.709+46.9532+328.872+46.0352+329.199+45.2931C329.444+44.7462+329.777+44.2555+330.199+43.8209C330.622+43.3863+331.084+43.0641+331.587+42.8541C332.256+42.5709+333.028+42.4293+333.902+42.4293C335.484+42.4293+336.749+42.92+337.699+43.9015C338.649+44.8829+339.124+46.2476+339.124+47.9957C339.124+49.7291+338.653+51.0853+337.71+52.0643C336.768+53.0433+335.508+53.5328+333.931+53.5328C332.334+53.5328+331.065+53.0457+330.122+52.0716C329.18+51.0975+328.709+49.7559+328.709+48.047ZM330.943+47.9737C330.943+49.1895+331.223+50.1112+331.785+50.7386C332.346+51.3661+333.059+51.6798+333.924+51.6798C334.788+51.6798+335.497+51.3685+336.051+50.7459C336.605+50.1234+336.883+49.1895+336.883+47.9444C336.883+46.714+336.613+45.796+336.073+45.1905C335.534+44.585+334.817+44.2823+333.924+44.2823C333.03+44.2823+332.31+44.5887+331.763+45.2015C331.216+45.8143+330.943+46.7384+330.943+47.9737Z" opacity="1"/>
<path d="M341.311+53.3497L341.311+42.6124L344.79+42.6124C346.108+42.6124+346.967+42.6661+347.368+42.7735C347.983+42.9347+348.498+43.285+348.913+43.8246C349.328+44.3641+349.536+45.0611+349.536+45.9156C349.536+46.5748+349.416+47.129+349.177+47.5782C348.938+48.0274+348.634+48.3802+348.265+48.6366C347.896+48.8929+347.522+49.0626+347.141+49.1456C346.623+49.2481+345.874+49.2994+344.892+49.2994L343.479+49.2994L343.479+53.3497L341.311+53.3497ZM343.479+44.4288L343.479+47.4757L344.665+47.4757C345.52+47.4757+346.091+47.4195+346.379+47.3072C346.667+47.1949+346.893+47.0191+347.056+46.7799C347.22+46.5406+347.302+46.2623+347.302+45.9449C347.302+45.5543+347.187+45.232+346.958+44.9781C346.728+44.7242+346.438+44.5655+346.086+44.502C345.827+44.4532+345.307+44.4288+344.526+44.4288L343.479+44.4288Z" opacity="1" fill="#56698f"/>
<path fill="#56698f" d="M360.175+53.3497L357.816+53.3497L356.879+50.9107L352.587+50.9107L351.701+53.3497L349.401+53.3497L353.583+42.6124L355.875+42.6124L360.175+53.3497ZM356.183+49.1017L354.704+45.1173L353.253+49.1017L356.183+49.1017Z" opacity="1"/>
<path d="M361.856+42.6124L364.024+42.6124L364.024+51.5479L368.228+51.5479L368.228+42.6124L370.396+42.6124L370.396+51.5479L371.29+51.5479L371.29+55.6934L369.488+55.6934L369.488+53.3497L361.856+53.3497L361.856+42.6124Z" fill="#56698f" opacity="1"/>
<path d="M373.301+42.6124L375.33+42.6124L375.33+49.7608L379.68+42.6124L381.841+42.6124L381.841+53.3497L379.812+53.3497L379.812+46.3404L375.469+53.3497L373.301+53.3497L373.301+42.6124Z" opacity="1" fill="#56698f"/>
<path d="M390.971+53.3497L390.971+48.8673L390.532+48.8673C389.848+48.8673+389.366+48.9698+389.085+49.1749C388.805+49.38+388.325+49.9928+387.646+51.0133L386.079+53.3497L383.486+53.3497L384.797+51.255C385.315+50.4249+385.727+49.8426+386.035+49.5081C386.342+49.1737+386.728+48.8746+387.192+48.6109C386.191+48.4547+385.468+48.1068+385.024+47.5672C384.58+47.0277+384.358+46.3819+384.358+45.63C384.358+44.9757+384.522+44.3958+384.852+43.8905C385.181+43.3851+385.616+43.0457+386.156+42.8724C386.695+42.6991+387.502+42.6124+388.576+42.6124L393.139+42.6124L393.139+53.3497L390.971+53.3497ZM390.971+44.4288L389.279+44.4288C388.42+44.4288+387.855+44.4483+387.584+44.4874C387.313+44.5265+387.08+44.6583+386.884+44.8829C386.689+45.1075+386.591+45.4005+386.591+45.7618C386.591+46.1378+386.685+46.4369+386.873+46.659C387.061+46.8812+387.301+47.0191+387.591+47.0728C387.882+47.1266+388.474+47.1534+389.367+47.1534L390.971+47.1534L390.971+44.4288Z" opacity="1" fill="#56698f"/>
<path opacity="1" fill="#56698f" d="M285.692+57.705L299.606+57.705L299.606+60.8281L289.45+60.8281L289.45+65.1445L294.477+65.1445C295.865+65.1445+297.016+65.3137+297.931+65.6523C298.845+65.9908+299.625+66.6171+300.273+67.5312C300.92+68.4452+301.244+69.5159+301.244+70.7431C301.244+72.0042+300.918+73.0833+300.266+73.9804C299.615+74.8775+298.872+75.4911+298.038+75.8212C297.205+76.1513+296.018+76.3163+294.477+76.3163L285.692+76.3163L285.692+57.705ZM289.45+73.1933L293.106+73.1933C294.274+73.1933+295.095+73.1362+295.569+73.0219C296.043+72.9076+296.456+72.6474+296.807+72.2411C297.158+71.8349+297.334+71.3355+297.334+70.7431C297.334+69.8798+297.027+69.2514+296.413+68.8578C295.8+68.4643+294.752+68.2675+293.271+68.2675L289.45+68.2675L289.45+73.1933Z"/>
<path opacity="1" d="M304.564+76.3163L304.564+57.705L318.363+57.705L318.363+60.8534L308.321+60.8534L308.321+64.9794L317.665+64.9794L317.665+68.1152L308.321+68.1152L308.321+73.1806L318.719+73.1806L318.719+76.3163L304.564+76.3163Z" fill="#56698f"/>
<path d="M324.819+62.7831L321.162+61.9326C321.95+58.9026+324.188+57.3876+327.878+57.3876C330.062+57.3876+331.71+57.8679+332.823+58.8285C333.936+59.7892+334.493+60.9169+334.493+62.2118C334.493+63.1005+334.239+63.9024+333.731+64.6176C333.223+65.3328+332.461+65.9612+331.446+66.5029C332.681+66.926+333.608+67.5248+334.226+68.2992C334.844+69.0737+335.153+70.0279+335.153+71.162C335.153+72.7955+334.554+74.1158+333.356+75.123C332.159+76.1301+330.367+76.6337+327.98+76.6337C326.033+76.6337+324.497+76.31+323.371+75.6625C322.246+75.0151+321.399+73.8027+320.832+72.0253L324.273+70.8954C324.628+72.0126+325.1+72.7363+325.688+73.0663C326.277+73.3964+327.002+73.5615+327.866+73.5615C329.05+73.5615+329.914+73.3054+330.455+72.7934C330.997+72.2813+331.268+71.6952+331.268+71.0351C331.268+70.2734+330.961+69.6598+330.348+69.1943C329.734+68.7288+328.809+68.496+327.574+68.496L326.723+68.496L326.723+65.6904L327.155+65.6904C328.306+65.6904+329.186+65.4322+329.795+64.9159C330.405+64.3997+330.709+63.7141+330.709+62.8593C330.709+62.1822+330.462+61.6109+329.967+61.1454C329.472+60.6799+328.763+60.4472+327.84+60.4472C326.266+60.4472+325.259+61.2258+324.819+62.7831Z" opacity="1" fill="#56698f"/>
<path opacity="1" fill="#56698f" d="M337.609+67.1249C337.609+65.2291+337.893+63.638+338.46+62.3515C338.883+61.4036+339.46+60.553+340.192+59.7997C340.925+59.0465+341.726+58.4879+342.598+58.124C343.758+57.6331+345.095+57.3876+346.61+57.3876C349.352+57.3876+351.546+58.2382+353.192+59.9394C354.839+61.6406+355.662+64.0061+355.662+67.0361C355.662+70.0406+354.845+72.3914+353.212+74.0883C351.578+75.7853+349.394+76.6337+346.661+76.6337C343.893+76.6337+341.693+75.7895+340.059+74.101C338.426+72.4125+337.609+70.0872+337.609+67.1249ZM341.481+66.998C341.481+69.1054+341.968+70.7029+342.941+71.7905C343.914+72.878+345.15+73.4218+346.648+73.4218C348.146+73.4218+349.375+72.8823+350.336+71.8032C351.297+70.7241+351.777+69.1054+351.777+66.9472C351.777+64.8144+351.309+63.2232+350.374+62.1738C349.439+61.1243+348.197+60.5995+346.648+60.5995C345.099+60.5995+343.851+61.1306+342.903+62.1928C341.955+63.255+341.481+64.8567+341.481+66.998Z"/>
<path opacity="1" d="M358.905+57.705L373.708+57.705L373.708+76.3163L369.95+76.3163L369.95+60.8281L362.663+60.8281L362.663+76.3163L358.905+76.3163L358.905+57.705Z" fill="#56698f"/>
<path fill="#56698f" opacity="1" d="M394.585+76.3163L390.497+76.3163L388.872+72.0888L381.433+72.0888L379.897+76.3163L375.91+76.3163L383.159+57.705L387.133+57.705L394.585+76.3163ZM387.666+68.9531L385.102+62.0468L382.588+68.9531L387.666+68.9531Z"/>
<path opacity="1" fill="#56698f" d="M408.099+69.4736L411.743+70.6288C411.184+72.6601+410.255+74.1687+408.956+75.1547C407.657+76.1407+406.008+76.6337+404.011+76.6337C401.54+76.6337+399.508+75.7895+397.917+74.101C396.326+72.4125+395.531+70.1041+395.531+67.1757C395.531+64.0781+396.33+61.6723+397.93+59.9584C399.53+58.2446+401.633+57.3876+404.24+57.3876C406.516+57.3876+408.366+58.0605+409.787+59.4062C410.634+60.2018+411.269+61.3443+411.692+62.8339L407.972+63.7226C407.752+62.7577+407.293+61.996+406.595+61.4374C405.896+60.8788+405.048+60.5995+404.049+60.5995C402.67+60.5995+401.55+61.0947+400.691+62.0849C399.832+63.0751+399.403+64.679+399.403+66.8964C399.403+69.2493+399.826+70.9251+400.672+71.9238C401.519+72.9225+402.619+73.4218+403.973+73.4218C404.972+73.4218+405.831+73.1044+406.55+72.4697C407.27+71.8349+407.786+70.8362+408.099+69.4736Z"/>
<path d="M415.24+76.3163L415.24+57.705L418.998+57.705L418.998+65.0302L426.361+65.0302L426.361+57.705L430.119+57.705L430.119+76.3163L426.361+76.3163L426.361+68.1786L418.998+68.1786L418.998+76.3163L415.24+76.3163Z" opacity="1" fill="#56698f"/>
<path fill="#56698f" d="M433.502+67.1249C433.502+65.2291+433.785+63.638+434.352+62.3515C434.776+61.4036+435.353+60.553+436.085+59.7997C436.817+59.0465+437.619+58.4879+438.491+58.124C439.651+57.6331+440.988+57.3876+442.503+57.3876C445.245+57.3876+447.439+58.2382+449.085+59.9394C450.731+61.6406+451.554+64.0061+451.554+67.0361C451.554+70.0406+450.738+72.3914+449.104+74.0883C447.471+75.7853+445.287+76.6337+442.554+76.6337C439.786+76.6337+437.585+75.7895+435.952+74.101C434.318+72.4125+433.502+70.0872+433.502+67.1249ZM437.374+66.998C437.374+69.1054+437.86+70.7029+438.834+71.7905C439.807+72.878+441.043+73.4218+442.541+73.4218C444.039+73.4218+445.268+72.8823+446.229+71.8032C447.189+70.7241+447.67+69.1054+447.67+66.9472C447.67+64.8144+447.202+63.2232+446.267+62.1738C445.332+61.1243+444.09+60.5995+442.541+60.5995C440.992+60.5995+439.744+61.1306+438.796+62.1928C437.848+63.255+437.374+64.8567+437.374+66.998Z" opacity="1"/>
<path fill="#56698f" d="M466.655+69.4736L470.299+70.6288C469.74+72.6601+468.811+74.1687+467.512+75.1547C466.213+76.1407+464.565+76.6337+462.567+76.6337C460.096+76.6337+458.065+75.7895+456.474+74.101C454.883+72.4125+454.087+70.1041+454.087+67.1757C454.087+64.0781+454.887+61.6723+456.486+59.9584C458.086+58.2446+460.189+57.3876+462.796+57.3876C465.073+57.3876+466.922+58.0605+468.344+59.4062C469.19+60.2018+469.825+61.3443+470.248+62.8339L466.528+63.7226C466.308+62.7577+465.849+61.996+465.151+61.4374C464.453+60.8788+463.604+60.5995+462.606+60.5995C461.226+60.5995+460.107+61.0947+459.248+62.0849C458.389+63.0751+457.959+64.679+457.959+66.8964C457.959+69.2493+458.382+70.9251+459.229+71.9238C460.075+72.9225+461.175+73.4218+462.529+73.4218C463.528+73.4218+464.387+73.1044+465.106+72.4697C465.826+71.8349+466.342+70.8362+466.655+69.4736Z" opacity="1"/>
<path opacity="1" fill="#56698f" d="M477.325+76.3163L477.325+60.8534L471.803+60.8534L471.803+57.705L486.593+57.705L486.593+60.8534L481.083+60.8534L481.083+76.3163L477.325+76.3163Z"/>
<path d="M489.329+57.705L492.845+57.705L492.845+70.0956L500.386+57.705L504.131+57.705L504.131+76.3163L500.615+76.3163L500.615+64.1669L493.086+76.3163L489.329+76.3163L489.329+57.705Z" opacity="1" fill="#56698f"/>
<path opacity="1" fill="#56698f" d="M7.11603+63.9984L41.4986+8.0933L41.4986+26.1956L22.5666+56.706L7.11603+63.9984Z"/>
<path fill="#56698f" opacity="1" d="M13.4922+76.3968L30.0963+66.7745L76.0086+66.7745L52.2792+26.1956L52.2792+8.0933L93.5876+76.3968L13.4922+76.3968Z"/>
<path d="M23.5216+56.706L30.0963+52.0272L52.4961+52.1793L41.6421+33.4251L41.6253+25.9826L59.5005+56.3625L23.5216+56.706Z" opacity="1" fill="#56698f"/>
<path opacity="1" fill="#56698f" d="M31.4531+50.219L32.2582+48.7188L50.8734+48.7672L51.5303+50.2963L31.4531+50.219Z"/>
<path fill="#56698f" d="M33.0044+47.4988C33.17+47.5242+33.652+46.0176+33.652+46.0176L49.7033+46.0176L49.9838+47.5095" opacity="1"/>
<path opacity="1" d="M34.5775+44.8582L35.0743+43.3944L48.3013+43.3944L48.7268+44.8582L34.5775+44.8582Z" fill="#56698f"/>
<path fill="#56698f" d="M35.906+42.1633L36.5035+40.547L47.2484+40.547L47.778+42.1633L35.906+42.1633Z" opacity="1"/>
<path d="M37.4311+39.3497L37.9632+37.6291L40.0491+37.6291L40.0491+39.3497L37.4311+39.3497Z" opacity="1" fill="#56698f"/>
<path d="M42.3124+37.6291L42.3211+39.3497L45.786+39.3497L45.5586+37.6291L42.3124+37.6291Z" opacity="1" fill="#56698f"/>
<path opacity="1" d="M39.2069+36.3953L39.7312+34.9428L43.2611+34.9428L44.2429+36.3953L39.2069+36.3953Z" fill="#56698f"/>
<path d="M264.153+42.1633L282.018+76.3968L282.018+42.1633L264.153+42.1633Z" fill="#e31e24" opacity="1"/>
<path opacity="1" d="M76.4047+34.9428L79.4803+39.3497L88.7757+39.3497L282.018+39.3497L282.018+34.9428L76.4047+34.9428Z" fill="#e31e24"/>
<path d="M285.461+20.24L285.741+38.312L296.967+38.4104" opacity="1" fill="#e31e24"/>
<path fill="#56698f" d="M163.839+60.6913L163.831+67.9244L169.848+67.8517L169.657+60.7409" opacity="1"/>
<path opacity="1" fill="#56698f" d="M163.844+51.1377L163.844+57.6937L168.857+57.6937L168.731+56.6904L168.681+52.5308C168.681+52.5308+168.722+51.0013+168.76+51.1377"/>
<path opacity="1" fill="#56698f" d="M168.507+51.1377C170.009+51.1377+170.953+51.5273+170.953+53.2237L170.953+53.7318L170.953+55.6638C170.953+57.3602+170.343+57.6937+168.841+57.6937C168.841+57.6937+166.471+55.8474+166.471+54.151L166.471+53.2469C166.471+51.5505+168.507+51.1377+168.507+51.1377Z"/>
<path opacity="1" d="M116.506+70.3497L114.057+70.3497L123.543+48.4017L125.713+48.4017L135.137+70.3497L132.657+70.3497L124.566+51.1917L116.506+70.3497Z" fill="#ffffff"/>
<path fill="#ffffff" d="M139.539+70.3497L137.09+70.3497L146.576+48.4017L148.746+48.4017L158.17+70.3497L155.69+70.3497L153.272+64.5837L141.926+64.5837L139.539+70.3497ZM142.763+62.5377L152.435+62.5377L147.599+50.8817L142.763+62.5377Z" opacity="1"/>
<path opacity="1" fill="#ffffff" d="M163.347+48.4017L169.888+48.4017C170.714+48.4017+171.551+48.4895+172.399+48.6652C173.246+48.8409+174.006+49.1405+174.677+49.5642C175.349+49.9879+175.897+50.5614+176.32+51.2847C176.744+52.008+176.956+52.9174+176.956+54.0127C176.956+55.17+176.604+56.1775+175.902+57.0352C175.199+57.8929+174.259+58.456+173.081+58.7247L173.081+58.7867C174.507+58.952+175.69+59.5049+176.63+60.4452C177.571+61.3855+178.041+62.6617+178.041+64.2737C178.041+65.183+177.85+66.0149+177.467+66.7692C177.085+67.5235+176.542+68.1642+175.84+68.6912C175.137+69.2182+174.279+69.6264+173.267+69.9157C172.254+70.205+171.117+70.3497+169.857+70.3497L163.347+70.3497L163.347+48.4017ZM165.579+58.0117L170.074+58.0117C170.611+58.0117+171.154+57.9497+171.701+57.8257C172.249+57.7017+172.75+57.4899+173.205+57.1902C173.659+56.8905+174.026+56.4927+174.305+55.9967C174.584+55.5007+174.724+54.891+174.724+54.1677C174.724+53.465+174.584+52.8709+174.305+52.3852C174.026+51.8995+173.649+51.5017+173.174+51.1917C172.698+50.8817+172.14+50.6595+171.5+50.5252C170.859+50.3909+170.177+50.3237+169.454+50.3237L165.579+50.3237L165.579+58.0117ZM165.579+68.4277L169.733+68.4277C170.539+68.4277+171.309+68.3502+172.042+68.1952C172.776+68.0402+173.417+67.7922+173.964+67.4512C174.512+67.1102+174.951+66.6659+175.282+66.1182C175.612+65.5705+175.778+64.9144+175.778+64.1497C175.778+62.703+175.287+61.6232+174.305+60.9102C173.324+60.1972+171.934+59.8407+170.136+59.8407L165.579+59.8407L165.579+68.4277Z"/>
<path d="M187.31+67.0947L200.082+48.4017L202.872+48.4017L202.872+70.3497L200.64+70.3497L200.64+51.4707L200.578+51.4707L187.806+70.3497L185.016+70.3497L185.016+48.4017L187.248+48.4017L187.248+67.0947L187.31+67.0947Z" fill="#ffffff" opacity="1"/>
<path d="M210.653+48.4017L212.885+48.4017L212.885+57.9187L224.851+57.9187L224.851+48.4017L227.083+48.4017L227.083+70.3497L224.851+70.3497L224.851+59.9647L212.885+59.9647L212.885+70.3497L210.653+70.3497L210.653+48.4017Z" opacity="1" fill="#ffffff"/>
<path opacity="1" d="M234.709+70.3497L232.26+70.3497L241.746+48.4017L243.916+48.4017L253.34+70.3497L250.86+70.3497L248.442+64.5837L237.096+64.5837L234.709+70.3497ZM237.933+62.5377L247.605+62.5377L242.769+50.8817L237.933+62.5377Z" fill="#ffffff"/>
</svg>
