<?xml version="1.0" encoding="UTF-8" standalone="no"?> <!-- Created with Vectornator for iOS (http://vectornator.io/) --><!DOCTYPE svg PUBLIC "-//W3C//DTD SVG 1.1//EN" "http://www.w3.org/Graphics/SVG/1.1/DTD/svg11.dtd">
<svg style="fill-rule:nonzero;clip-rule:evenodd;stroke-linecap:round;stroke-linejoin:round;" xmlns="http://www.w3.org/2000/svg" viewBox="0 0 512 100" width="100%" height="100%" xmlns:xlink="http://www.w3.org/1999/xlink" version="1.1" xml:space="preserve">
<!-- <metadata>
<vectornator:setting key="VNDimensionsVisible" value="true"/>
<vectornator:setting key="VNPencilOnly" value="false"/>
<vectornator:setting value="false" key="WDIsolateActiveLayer"/>
<vectornator:setting key="WDDisplayWhiteBackground" value="false"/>
<vectornator:setting key="WDSnapToGrid" value="false"/>
<vectornator:setting value="false" key="WDCMYKEnabledKey"/>
<vectornator:setting key="WDUnits" value="Points"/>
<vectornator:setting key="WDRulersVisible" value="true"/>
<vectornator:setting key="VNSnapToGuides" value="true"/>
<vectornator:setting value="false" key="WDOutlineMode"/>
<vectornator:setting key="WDSnapToPoints" value="false"/>
<vectornator:setting value="false" key="WDSnapToEdges"/>
<vectornator:setting key="IsTimeLapseWatermarkDisabled" value="false"/>
<vectornator:setting value="true" key="WDGuidesVisible"/>
<vectornator:setting value="false" key="WDDynamicGuides"/>
<vectornator:setting key="UndoHistoryDisabled" value="false"/>
</metadata>
<defs/> -->
<!-- <g id="Слой 1" vectornator:layerName="Слой 1"> -->
<path opacity="1" fill="#56698f" fill-rule="evenodd" d="M80.5648+42.1633L99.9155+76.3968L275.635+76.3022L258.876+42.1633L80.5648+42.1633Z"/>
<path fill="#56698f" d="M275.637+75.8117L259.009+42.884L275.637+75.8117Z" opacity="0.70825" fill-rule="evenodd"/>
<!-- <g opacity="1"> -->
<path d="M78.1534+32.6263L78.1534+19.0257L80.8624+19.0257L84.0816+28.6556C84.3785+29.5524+84.595+30.2235+84.731+30.6688C84.8857+30.174+85.1269+29.4473+85.4547+28.4886L88.711+19.0257L91.1324+19.0257L91.1324+32.6263L89.3975+32.6263L89.3975+21.243L85.4454+32.6263L83.8219+32.6263L79.8883+21.0482L79.8883+32.6263L78.1534+32.6263Z" opacity="1" fill-rule="evenodd" fill="#939393"/>
<path fill-rule="evenodd" d="M94.4153+32.6263L94.4153+19.0257L104.249+19.0257L104.249+20.6307L96.2151+20.6307L96.2151+24.7962L103.739+24.7962L103.739+26.3919L96.2151+26.3919L96.2151+31.0213L104.565+31.0213L104.565+32.6263L94.4153+32.6263Z" fill="#939393" opacity="1"/>
<path d="M115.622+19.0257L115.622+24.9818C116.507+24.9818+117.114+24.8194+117.445+24.4947C117.776+24.17+118.198+23.4077+118.711+22.2078C119.089+21.3172+119.399+20.6879+119.644+20.3199C119.888+19.9519+120.236+19.6427+120.687+19.3922C121.139+19.1417+121.634+19.0164+122.172+19.0164C122.759+19.0164+123.124+19.0226+123.267+19.035L123.267+20.5936C123.211+20.5936+123.093+20.5905+122.914+20.5843C122.716+20.5781+122.596+20.575+122.552+20.575C121.977+20.575+121.55+20.7142+121.272+20.9925C120.987+21.2708+120.663+21.8646+120.298+22.7738C119.902+23.7572+119.559+24.4267+119.268+24.7823C118.977+25.1379+118.557+25.4333+118.006+25.6683C118.897+25.9157+119.76+26.7259+120.595+28.0989L123.396+32.6263L121.17+32.6263L118.897+28.9339C118.291+27.9567+117.781+27.2671+117.366+26.8651C116.952+26.463+116.37+26.262+115.622+26.262L115.622+32.6263L113.776+32.6263L113.776+26.262C113.182+26.262+112.658+26.4182+112.203+26.7305C111.749+27.0429+111.218+27.7155+110.612+28.7484L110.501+28.9339L108.228+32.6263L105.992+32.6263L108.794+28.0989C109.647+26.7197+110.513+25.9095+111.392+25.6683C110.903+25.4704+110.504+25.206+110.195+24.8751C109.886+24.5442+109.518+23.8437+109.091+22.7738C108.701+21.8027+108.367+21.1935+108.089+20.9461C107.811+20.6987+107.396+20.575+106.846+20.575L106.122+20.5936L106.122+19.035C106.19+19.0226+106.536+19.0164+107.161+19.0164C107.755+19.0164+108.27+19.1386+108.706+19.3829C109.142+19.6272+109.484+19.9333+109.731+20.3013C109.978+20.6693+110.297+21.3048+110.687+22.2078C111.206+23.4263+111.628+24.1901+111.953+24.4993C112.278+24.8086+112.885+24.9694+113.776+24.9818L113.776+19.0257L115.622+19.0257Z" fill-rule="evenodd" opacity="1" fill="#939393"/>
<path fill="#939393" fill-rule="evenodd" d="M125.279+32.6263L125.279+19.0257L130.409+19.0257C131.312+19.0257+132.002+19.069+132.478+19.1556C133.146+19.2669+133.705+19.4788+134.157+19.7911C134.608+20.1034+134.972+20.541+135.247+21.1038C135.522+21.6667+135.66+22.2851+135.66+22.9593C135.66+24.1159+135.292+25.0946+134.556+25.8956C133.82+26.6965+132.49+27.097+130.567+27.097L127.078+27.097L127.078+32.6263L125.279+32.6263ZM127.078+25.492L130.594+25.492C131.757+25.492+132.583+25.2755+133.071+24.8426C133.56+24.4097+133.804+23.8004+133.804+23.015C133.804+22.446+133.661+21.9589+133.373+21.5538C133.085+21.1487+132.707+20.8812+132.237+20.7513C131.933+20.6709+131.374+20.6307+130.557+20.6307L127.078+20.6307L127.078+25.492Z" opacity="1"/>
<path d="M138.33+32.6263L138.33+19.0257L148.164+19.0257L148.164+20.6307L140.13+20.6307L140.13+24.7962L147.654+24.7962L147.654+26.3919L140.13+26.3919L140.13+31.0213L148.48+31.0213L148.48+32.6263L138.33+32.6263Z" fill-rule="evenodd" fill="#939393" opacity="1"/>
<path fill-rule="evenodd" d="M151.336+19.0257L160.131+19.0257L160.131+20.6307L153.136+20.6307L153.136+32.6263L151.336+32.6263L151.336+19.0257Z" opacity="1" fill="#939393"/>
<path d="M161.967+19.0257L163.599+19.0257L163.599+29.7967L170.836+19.0257L172.645+19.0257L172.645+32.6263L171.012+32.6263L171.012+21.8831L163.766+32.6263L161.967+32.6263L161.967+19.0257Z" opacity="1" fill-rule="evenodd" fill="#939393"/>
<path fill="#939393" fill-rule="evenodd" d="M175.39+26.0023C175.39+23.7448+175.996+21.9774+177.208+20.7003C178.42+19.4231+179.985+18.7845+181.902+18.7845C183.158+18.7845+184.29+19.0845+185.298+19.6844C186.306+20.2843+187.074+21.1208+187.603+22.1939C188.132+23.267+188.397+24.4839+188.397+25.8446C188.397+27.2238+188.118+28.4577+187.562+29.5462C187.005+30.6348+186.216+31.4589+185.196+32.0186C184.175+32.5784+183.074+32.8582+181.893+32.8582C180.613+32.8582+179.469+32.549+178.46+31.9305C177.452+31.312+176.689+30.4678+176.169+29.3978C175.649+28.3278+175.39+27.196+175.39+26.0023ZM177.245+26.0301C177.245+27.6691+177.686+28.9602+178.567+29.9034C179.449+30.8466+180.554+31.3182+181.884+31.3182C183.238+31.3182+184.353+30.842+185.228+29.8895C186.103+28.937+186.541+27.5856+186.541+25.8353C186.541+24.7282+186.354+23.7618+185.98+22.9361C185.606+22.1104+185.058+21.4703+184.338+21.0157C183.617+20.5611+182.808+20.3338+181.912+20.3338C180.638+20.3338+179.541+20.7714+178.623+21.6466C177.704+22.5217+177.245+23.9829+177.245+26.0301Z" opacity="1"/>
<path d="M191.114+32.6263L191.114+19.0257L192.913+19.0257L192.913+24.6107L199.983+24.6107L199.983+19.0257L201.782+19.0257L201.782+32.6263L199.983+32.6263L199.983+26.2156L192.913+26.2156L192.913+32.6263L191.114+32.6263Z" fill="#939393" opacity="1" fill-rule="evenodd"/>
<path fill="#939393" fill-rule="evenodd" opacity="1" d="M203.627+32.6263L208.851+19.0257L210.79+19.0257L216.356+32.6263L214.306+32.6263L212.719+28.5072L207.032+28.5072L205.539+32.6263L203.627+32.6263ZM207.552+27.0413L212.163+27.0413L210.743+23.2747C210.31+22.1305+209.989+21.1904+209.778+20.4544C209.605+21.3265+209.361+22.1924+209.045+23.0521L207.552+27.0413Z"/>
<path fill-rule="evenodd" opacity="1" fill="#939393" d="M219.546+19.0257L228.063+19.0257L228.063+32.6263L226.263+32.6263L226.263+20.6307L221.346+20.6307L221.346+27.6351C221.346+29.0576+221.279+30.0998+221.146+30.7615C221.013+31.4233+220.734+31.9382+220.307+32.3062C219.88+32.6742+219.339+32.8582+218.683+32.8582C218.287+32.8582+217.811+32.784+217.255+32.6356L217.561+31.0399C217.858+31.1636+218.111+31.2254+218.321+31.2254C218.73+31.2254+219.036+31.0723+219.24+30.7662C219.444+30.46+219.546+29.7379+219.546+28.5999L219.546+19.0257Z"/>
<path d="M231.429+19.0257L233.229+19.0257L233.229+24.8333L236.476+24.8333C237.991+24.8333+239.089+25.0096+239.769+25.3621C240.45+25.7147+240.938+26.194+241.235+26.8001C241.532+27.4062+241.681+28.0309+241.681+28.6741C241.681+29.7256+241.322+30.6471+240.604+31.4388C239.887+32.2305+238.551+32.6263+236.597+32.6263L231.429+32.6263L231.429+19.0257ZM233.229+31.0955L236.522+31.0955C237.858+31.0955+238.729+30.859+239.134+30.3858C239.539+29.9127+239.742+29.3421+239.742+28.6741C239.742+28.1299+239.595+27.6676+239.301+27.2872C239.007+26.9068+238.616+26.661+238.127+26.5496C237.639+26.4383+236.81+26.3826+235.641+26.3826L233.229+26.3826L233.229+31.0955Z" opacity="1" fill="#939393" fill-rule="evenodd"/>
<path opacity="1" d="M244.231+32.6263L244.231+19.0257L246.03+19.0257L246.03+24.6107L253.1+24.6107L253.1+19.0257L254.899+19.0257L254.899+32.6263L253.1+32.6263L253.1+26.2156L246.03+26.2156L246.03+32.6263L244.231+32.6263Z" fill="#939393" fill-rule="evenodd"/>
<path fill="#939393" opacity="1" d="M256.744+32.6263L261.968+19.0257L263.907+19.0257L269.473+32.6263L267.423+32.6263L265.836+28.5072L260.149+28.5072L258.656+32.6263L256.744+32.6263ZM260.669+27.0413L265.28+27.0413L263.86+23.2747C263.427+22.1305+263.106+21.1904+262.895+20.4544C262.722+21.3265+262.478+22.1924+262.162+23.0521L260.669+27.0413Z" fill-rule="evenodd"/>
<path d="M282.015+32.6263L282.015+19.0257L275.984+19.0257C274.772+19.0257+273.851+19.1479+273.22+19.3922C272.589+19.6365+272.085+20.0679+271.708+20.6864C271.33+21.3048+271.142+21.9883+271.142+22.7366C271.142+23.7015+271.454+24.5148+272.079+25.1766C272.703+25.8384+273.668+26.2589+274.973+26.4383C274.497+26.6671+274.135+26.8929+273.888+27.1156C273.362+27.598+272.864+28.201+272.394+28.9246L270.028+32.6263L272.292+32.6263L274.092+29.7967C274.618+28.9803+275.05+28.3556+275.391+27.9227C275.731+27.4897+276.035+27.1867+276.304+27.0135C276.573+26.8403+276.847+26.7197+277.125+26.6517C277.33+26.6084+277.664+26.5867+278.127+26.5867L280.215+26.5867L280.215+32.6263L282.015+32.6263ZM280.215+25.0281L276.346+25.0281C275.524+25.0281+274.88+24.9431+274.416+24.773C273.953+24.6029+273.6+24.3308+273.359+23.9566C273.118+23.5824+272.997+23.1758+272.997+22.7366C272.997+22.0934+273.231+21.5646+273.698+21.1502C274.164+20.7358+274.902+20.5286+275.91+20.5286L280.215+20.5286L280.215+25.0281Z" fill-rule="evenodd" opacity="1" fill="#939393"/>
<!-- </g>
<g opacity="1"> -->
<path d="M285.596+42.6124L287.764+42.6124L287.764+47.1827C288.247+47.1339+288.574+47.0094+288.745+46.8092C288.916+46.609+289.18+46.0523+289.536+45.1392C289.986+43.9771+290.437+43.2545+290.891+42.9713C291.341+42.6881+292.066+42.5465+293.067+42.5465C293.115+42.5465+293.22+42.544+293.382+42.5392L293.382+44.1432L293.074+44.1358C292.63+44.1358+292.305+44.1908+292.1+44.3006C291.895+44.4105+291.729+44.5777+291.602+44.8023C291.475+45.0269+291.287+45.4884+291.038+46.1866C290.906+46.5577+290.763+46.8678+290.609+47.1168C290.455+47.3658+290.183+47.6002+289.793+47.8199C290.276+47.9566+290.675+48.2325+290.99+48.6475C291.305+49.0626+291.651+49.6485+292.027+50.4054L293.491+53.3497L290.943+53.3497L289.661+50.5738C289.641+50.5348+289.6+50.4591+289.536+50.3468C289.512+50.3077+289.422+50.1392+289.265+49.8414C288.987+49.3141+288.759+48.9845+288.58+48.8526C288.402+48.7208+288.13+48.6524+287.764+48.6475L287.764+53.3497L285.596+53.3497L285.596+42.6124Z" opacity="1" fill-rule="evenodd" fill="#56698f"/>
<path fill="#56698f" fill-rule="evenodd" d="M294.77+48.047C294.77+46.9532+294.934+46.0352+295.261+45.2931C295.505+44.7462+295.838+44.2555+296.261+43.8209C296.683+43.3863+297.146+43.0641+297.648+42.8541C298.317+42.5709+299.089+42.4293+299.963+42.4293C301.545+42.4293+302.811+42.92+303.761+43.9015C304.71+44.8829+305.185+46.2476+305.185+47.9957C305.185+49.7291+304.714+51.0853+303.772+52.0643C302.829+53.0433+301.569+53.5328+299.992+53.5328C298.396+53.5328+297.126+53.0457+296.184+52.0716C295.241+51.0975+294.77+49.7559+294.77+48.047ZM297.004+47.9737C297.004+49.1895+297.285+50.1112+297.846+50.7386C298.408+51.3661+299.121+51.6798+299.985+51.6798C300.849+51.6798+301.558+51.3685+302.113+50.7459C302.667+50.1234+302.944+49.1895+302.944+47.9444C302.944+46.714+302.674+45.796+302.135+45.1905C301.595+44.585+300.878+44.2823+299.985+44.2823C299.091+44.2823+298.371+44.5887+297.824+45.2015C297.277+45.8143+297.004+46.7384+297.004+47.9737Z" opacity="1"/>
<path fill-rule="evenodd" fill="#56698f" opacity="1" d="M307.372+53.3497L307.372+42.6124L310.851+42.6124C312.169+42.6124+313.029+42.6661+313.429+42.7735C314.044+42.9347+314.56+43.285+314.975+43.8246C315.39+44.3641+315.597+45.0611+315.597+45.9156C315.597+46.5748+315.477+47.129+315.238+47.5782C314.999+48.0274+314.695+48.3802+314.326+48.6366C313.958+48.8929+313.583+49.0626+313.202+49.1456C312.685+49.2481+311.935+49.2994+310.954+49.2994L309.54+49.2994L309.54+53.3497L307.372+53.3497ZM309.54+44.4288L309.54+47.4757L310.727+47.4757C311.581+47.4757+312.152+47.4195+312.44+47.3072C312.728+47.1949+312.954+47.0191+313.118+46.7799C313.281+46.5406+313.363+46.2623+313.363+45.9449C313.363+45.5543+313.248+45.232+313.019+44.9781C312.789+44.7242+312.499+44.5655+312.147+44.502C311.889+44.4532+311.369+44.4288+310.587+44.4288L309.54+44.4288Z"/>
<path d="M317.901+42.6124L326.441+42.6124L326.441+53.3497L324.273+53.3497L324.273+44.4142L320.069+44.4142L320.069+53.3497L317.901+53.3497L317.901+42.6124Z" fill="#56698f" opacity="1" fill-rule="evenodd"/>
<path fill-rule="evenodd" opacity="1" d="M328.709+48.047C328.709+46.9532+328.872+46.0352+329.199+45.2931C329.444+44.7462+329.777+44.2555+330.199+43.8209C330.622+43.3863+331.084+43.0641+331.587+42.8541C332.256+42.5709+333.028+42.4293+333.902+42.4293C335.484+42.4293+336.749+42.92+337.699+43.9015C338.649+44.8829+339.124+46.2476+339.124+47.9957C339.124+49.7291+338.653+51.0853+337.71+52.0643C336.768+53.0433+335.508+53.5328+333.931+53.5328C332.334+53.5328+331.065+53.0457+330.122+52.0716C329.18+51.0975+328.709+49.7559+328.709+48.047ZM330.943+47.9737C330.943+49.1895+331.223+50.1112+331.785+50.7386C332.346+51.3661+333.059+51.6798+333.924+51.6798C334.788+51.6798+335.497+51.3685+336.051+50.7459C336.605+50.1234+336.883+49.1895+336.883+47.9444C336.883+46.714+336.613+45.796+336.073+45.1905C335.534+44.585+334.817+44.2823+333.924+44.2823C333.03+44.2823+332.31+44.5887+331.763+45.2015C331.216+45.8143+330.943+46.7384+330.943+47.9737Z" fill="#56698f"/>
<path d="M341.311+53.3497L341.311+42.6124L344.79+42.6124C346.108+42.6124+346.967+42.6661+347.368+42.7735C347.983+42.9347+348.498+43.285+348.913+43.8246C349.328+44.3641+349.536+45.0611+349.536+45.9156C349.536+46.5748+349.416+47.129+349.177+47.5782C348.938+48.0274+348.634+48.3802+348.265+48.6366C347.896+48.8929+347.522+49.0626+347.141+49.1456C346.623+49.2481+345.874+49.2994+344.892+49.2994L343.479+49.2994L343.479+53.3497L341.311+53.3497ZM343.479+44.4288L343.479+47.4757L344.665+47.4757C345.52+47.4757+346.091+47.4195+346.379+47.3072C346.667+47.1949+346.893+47.0191+347.056+46.7799C347.22+46.5406+347.302+46.2623+347.302+45.9449C347.302+45.5543+347.187+45.232+346.958+44.9781C346.728+44.7242+346.438+44.5655+346.086+44.502C345.827+44.4532+345.307+44.4288+344.526+44.4288L343.479+44.4288Z" fill="#56698f" opacity="1" fill-rule="evenodd"/>
<path fill="#56698f" d="M360.175+53.3497L357.816+53.3497L356.879+50.9107L352.587+50.9107L351.701+53.3497L349.401+53.3497L353.583+42.6124L355.875+42.6124L360.175+53.3497ZM356.183+49.1017L354.704+45.1173L353.253+49.1017L356.183+49.1017Z" fill-rule="evenodd" opacity="1"/>
<path fill="#56698f" opacity="1" d="M361.856+42.6124L364.024+42.6124L364.024+51.5479L368.228+51.5479L368.228+42.6124L370.396+42.6124L370.396+51.5479L371.29+51.5479L371.29+55.6934L369.488+55.6934L369.488+53.3497L361.856+53.3497L361.856+42.6124Z" fill-rule="evenodd"/>
<path opacity="1" d="M373.301+42.6124L375.33+42.6124L375.33+49.7608L379.68+42.6124L381.841+42.6124L381.841+53.3497L379.812+53.3497L379.812+46.3404L375.469+53.3497L373.301+53.3497L373.301+42.6124Z" fill-rule="evenodd" fill="#56698f"/>
<path fill-rule="evenodd" fill="#56698f" opacity="1" d="M390.971+53.3497L390.971+48.8673L390.532+48.8673C389.848+48.8673+389.366+48.9698+389.085+49.1749C388.805+49.38+388.325+49.9928+387.646+51.0133L386.079+53.3497L383.486+53.3497L384.797+51.255C385.315+50.4249+385.727+49.8426+386.035+49.5081C386.342+49.1737+386.728+48.8746+387.192+48.6109C386.191+48.4547+385.468+48.1068+385.024+47.5672C384.58+47.0277+384.358+46.3819+384.358+45.63C384.358+44.9757+384.522+44.3958+384.852+43.8905C385.181+43.3851+385.616+43.0457+386.156+42.8724C386.695+42.6991+387.502+42.6124+388.576+42.6124L393.139+42.6124L393.139+53.3497L390.971+53.3497ZM390.971+44.4288L389.279+44.4288C388.42+44.4288+387.855+44.4483+387.584+44.4874C387.313+44.5265+387.08+44.6583+386.884+44.8829C386.689+45.1075+386.591+45.4005+386.591+45.7618C386.591+46.1378+386.685+46.4369+386.873+46.659C387.061+46.8812+387.301+47.0191+387.591+47.0728C387.882+47.1266+388.474+47.1534+389.367+47.1534L390.971+47.1534L390.971+44.4288Z"/>
<!-- </g>
<g opacity="1"> -->
<path fill="#56698f" opacity="1" fill-rule="evenodd" d="M285.692+57.705L299.606+57.705L299.606+60.8281L289.45+60.8281L289.45+65.1445L294.477+65.1445C295.865+65.1445+297.016+65.3137+297.931+65.6523C298.845+65.9908+299.625+66.6171+300.273+67.5312C300.92+68.4452+301.244+69.5159+301.244+70.7431C301.244+72.0042+300.918+73.0833+300.266+73.9804C299.615+74.8775+298.872+75.4911+298.038+75.8212C297.205+76.1513+296.018+76.3163+294.477+76.3163L285.692+76.3163L285.692+57.705ZM289.45+73.1933L293.106+73.1933C294.274+73.1933+295.095+73.1362+295.569+73.0219C296.043+72.9076+296.456+72.6474+296.807+72.2411C297.158+71.8349+297.334+71.3355+297.334+70.7431C297.334+69.8798+297.027+69.2514+296.413+68.8578C295.8+68.4643+294.752+68.2675+293.271+68.2675L289.45+68.2675L289.45+73.1933Z"/>
<path opacity="1" fill-rule="evenodd" fill="#56698f" d="M304.564+76.3163L304.564+57.705L318.363+57.705L318.363+60.8534L308.321+60.8534L308.321+64.9794L317.665+64.9794L317.665+68.1152L308.321+68.1152L308.321+73.1806L318.719+73.1806L318.719+76.3163L304.564+76.3163Z"/>
<path fill-rule="evenodd" fill="#56698f" opacity="1" d="M324.819+62.7831L321.162+61.9326C321.95+58.9026+324.188+57.3876+327.878+57.3876C330.062+57.3876+331.71+57.8679+332.823+58.8285C333.936+59.7892+334.493+60.9169+334.493+62.2118C334.493+63.1005+334.239+63.9024+333.731+64.6176C333.223+65.3328+332.461+65.9612+331.446+66.5029C332.681+66.926+333.608+67.5248+334.226+68.2992C334.844+69.0737+335.153+70.0279+335.153+71.162C335.153+72.7955+334.554+74.1158+333.356+75.123C332.159+76.1301+330.367+76.6337+327.98+76.6337C326.033+76.6337+324.497+76.31+323.371+75.6625C322.246+75.0151+321.399+73.8027+320.832+72.0253L324.273+70.8954C324.628+72.0126+325.1+72.7363+325.688+73.0663C326.277+73.3964+327.002+73.5615+327.866+73.5615C329.05+73.5615+329.914+73.3054+330.455+72.7934C330.997+72.2813+331.268+71.6952+331.268+71.0351C331.268+70.2734+330.961+69.6598+330.348+69.1943C329.734+68.7288+328.809+68.496+327.574+68.496L326.723+68.496L326.723+65.6904L327.155+65.6904C328.306+65.6904+329.186+65.4322+329.795+64.9159C330.405+64.3997+330.709+63.7141+330.709+62.8593C330.709+62.1822+330.462+61.6109+329.967+61.1454C329.472+60.6799+328.763+60.4472+327.84+60.4472C326.266+60.4472+325.259+61.2258+324.819+62.7831Z"/>
<path d="M337.609+67.1249C337.609+65.2291+337.893+63.638+338.46+62.3515C338.883+61.4036+339.46+60.553+340.192+59.7997C340.925+59.0465+341.726+58.4879+342.598+58.124C343.758+57.6331+345.095+57.3876+346.61+57.3876C349.352+57.3876+351.546+58.2382+353.192+59.9394C354.839+61.6406+355.662+64.0061+355.662+67.0361C355.662+70.0406+354.845+72.3914+353.212+74.0883C351.578+75.7853+349.394+76.6337+346.661+76.6337C343.893+76.6337+341.693+75.7895+340.059+74.101C338.426+72.4125+337.609+70.0872+337.609+67.1249ZM341.481+66.998C341.481+69.1054+341.968+70.7029+342.941+71.7905C343.914+72.878+345.15+73.4218+346.648+73.4218C348.146+73.4218+349.375+72.8823+350.336+71.8032C351.297+70.7241+351.777+69.1054+351.777+66.9472C351.777+64.8144+351.309+63.2232+350.374+62.1738C349.439+61.1243+348.197+60.5995+346.648+60.5995C345.099+60.5995+343.851+61.1306+342.903+62.1928C341.955+63.255+341.481+64.8567+341.481+66.998Z" fill="#56698f" fill-rule="evenodd" opacity="1"/>
<path opacity="1" fill="#56698f" fill-rule="evenodd" d="M358.905+57.705L373.708+57.705L373.708+76.3163L369.95+76.3163L369.95+60.8281L362.663+60.8281L362.663+76.3163L358.905+76.3163L358.905+57.705Z"/>
<path d="M394.585+76.3163L390.497+76.3163L388.872+72.0888L381.433+72.0888L379.897+76.3163L375.91+76.3163L383.159+57.705L387.133+57.705L394.585+76.3163ZM387.666+68.9531L385.102+62.0468L382.588+68.9531L387.666+68.9531Z" opacity="1" fill="#56698f" fill-rule="evenodd"/>
<path opacity="1" fill="#56698f" d="M408.099+69.4736L411.743+70.6288C411.184+72.6601+410.255+74.1687+408.956+75.1547C407.657+76.1407+406.008+76.6337+404.011+76.6337C401.54+76.6337+399.508+75.7895+397.917+74.101C396.326+72.4125+395.531+70.1041+395.531+67.1757C395.531+64.0781+396.33+61.6723+397.93+59.9584C399.53+58.2446+401.633+57.3876+404.24+57.3876C406.516+57.3876+408.366+58.0605+409.787+59.4062C410.634+60.2018+411.269+61.3443+411.692+62.8339L407.972+63.7226C407.752+62.7577+407.293+61.996+406.595+61.4374C405.896+60.8788+405.048+60.5995+404.049+60.5995C402.67+60.5995+401.55+61.0947+400.691+62.0849C399.832+63.0751+399.403+64.679+399.403+66.8964C399.403+69.2493+399.826+70.9251+400.672+71.9238C401.519+72.9225+402.619+73.4218+403.973+73.4218C404.972+73.4218+405.831+73.1044+406.55+72.4697C407.27+71.8349+407.786+70.8362+408.099+69.4736Z" fill-rule="evenodd"/>
<path fill-rule="evenodd" opacity="1" fill="#56698f" d="M415.24+76.3163L415.24+57.705L418.998+57.705L418.998+65.0302L426.361+65.0302L426.361+57.705L430.119+57.705L430.119+76.3163L426.361+76.3163L426.361+68.1786L418.998+68.1786L418.998+76.3163L415.24+76.3163Z"/>
<path fill="#56698f" d="M433.502+67.1249C433.502+65.2291+433.785+63.638+434.352+62.3515C434.776+61.4036+435.353+60.553+436.085+59.7997C436.817+59.0465+437.619+58.4879+438.491+58.124C439.651+57.6331+440.988+57.3876+442.503+57.3876C445.245+57.3876+447.439+58.2382+449.085+59.9394C450.731+61.6406+451.554+64.0061+451.554+67.0361C451.554+70.0406+450.738+72.3914+449.104+74.0883C447.471+75.7853+445.287+76.6337+442.554+76.6337C439.786+76.6337+437.585+75.7895+435.952+74.101C434.318+72.4125+433.502+70.0872+433.502+67.1249ZM437.374+66.998C437.374+69.1054+437.86+70.7029+438.834+71.7905C439.807+72.878+441.043+73.4218+442.541+73.4218C444.039+73.4218+445.268+72.8823+446.229+71.8032C447.189+70.7241+447.67+69.1054+447.67+66.9472C447.67+64.8144+447.202+63.2232+446.267+62.1738C445.332+61.1243+444.09+60.5995+442.541+60.5995C440.992+60.5995+439.744+61.1306+438.796+62.1928C437.848+63.255+437.374+64.8567+437.374+66.998Z" opacity="1" fill-rule="evenodd"/>
<path d="M466.655+69.4736L470.299+70.6288C469.74+72.6601+468.811+74.1687+467.512+75.1547C466.213+76.1407+464.565+76.6337+462.567+76.6337C460.096+76.6337+458.065+75.7895+456.474+74.101C454.883+72.4125+454.087+70.1041+454.087+67.1757C454.087+64.0781+454.887+61.6723+456.486+59.9584C458.086+58.2446+460.189+57.3876+462.796+57.3876C465.073+57.3876+466.922+58.0605+468.344+59.4062C469.19+60.2018+469.825+61.3443+470.248+62.8339L466.528+63.7226C466.308+62.7577+465.849+61.996+465.151+61.4374C464.453+60.8788+463.604+60.5995+462.606+60.5995C461.226+60.5995+460.107+61.0947+459.248+62.0849C458.389+63.0751+457.959+64.679+457.959+66.8964C457.959+69.2493+458.382+70.9251+459.229+71.9238C460.075+72.9225+461.175+73.4218+462.529+73.4218C463.528+73.4218+464.387+73.1044+465.106+72.4697C465.826+71.8349+466.342+70.8362+466.655+69.4736Z" opacity="1" fill="#56698f" fill-rule="evenodd"/>
<path fill-rule="evenodd" opacity="1" d="M477.325+76.3163L477.325+60.8534L471.803+60.8534L471.803+57.705L486.593+57.705L486.593+60.8534L481.083+60.8534L481.083+76.3163L477.325+76.3163Z" fill="#56698f"/>
<path d="M489.329+57.705L492.845+57.705L492.845+70.0956L500.386+57.705L504.131+57.705L504.131+76.3163L500.615+76.3163L500.615+64.1669L493.086+76.3163L489.329+76.3163L489.329+57.705Z" fill-rule="evenodd" fill="#56698f" opacity="1"/>
<!-- </g> -->
<path opacity="1" d="M108.269+70.9343L113.391+70.9343L120.375+52.0272L127.72+70.9343L132.206+70.9343L122.975+47.5242L117.797+47.5242" fill="#ffffff" fill-rule="evenodd"/>
<path fill="#ffffff" fill-rule="evenodd" d="M132.996+70.9343L137.366+70.9343L140.512+63.9984L150.654+63.9984L153.792+70.951L158.537+70.9343L147.851+47.5242L143.398+47.5242L132.996+70.9343Z" opacity="1"/>
<path d="M159.609+47.5242L159.624+70.9343L171+70.9343L170.28+47.5242L168.071+47.5242" fill-rule="evenodd" fill="#ffffff" opacity="1"/>
<path fill-rule="evenodd" fill="#ffffff" d="M169.993+47.5242C172.38+47.5242+174.269+50.107+174.269+52.0272L174.269+55.6638C174.269+58.0359+172.325+59.2697+169.953+59.2697C169.953+59.2697+166.724+56.4283+166.724+54.0563L166.697+53.5091L166.522+50C166.522+47.6279+169.993+47.5242+169.993+47.5242Z" opacity="1"/>
<path opacity="1" fill="#ffffff" fill-rule="evenodd" d="M171.071+58.667L171.071+58.667C174.293+58.667+176.33+61.5499+176.33+64.7719L176.33+64.3645C176.33+67.5864+173.997+70.9343+170.775+70.9343C170.775+70.9343+170.651+70.3965+170.916+70.5256C171.182+70.6547+165.237+68.1933+165.237+64.9714L165.237+64.5008C165.237+61.2789+167.849+58.667+171.071+58.667Z"/>
<path fill-rule="evenodd" fill="#ffffff" opacity="1" d="M179.944+47.5242L179.944+70.9343L184.675+70.9343L197.572+53.7382L197.503+70.9343L202.187+70.9343L202.187+47.5242L197.572+47.5242L184.675+63.9984L184.675+47.5242L179.944+47.5242Z"/>
<path fill="#ffffff" d="M206.385+47.5242L206.398+70.9343L211.05+70.9343L211.05+60.7363L221.426+60.7363L221.426+70.9343L226.192+70.98L226.242+47.5242L221.426+47.5242L221.426+57.6937L211.05+57.6937L211.05+47.5242L206.385+47.5242Z" fill-rule="evenodd" opacity="1"/>
<path fill-rule="evenodd" fill="#56698f" opacity="1" d="M7.11603+63.9984L41.4986+8.0933L41.4986+26.1956L22.5666+56.706L7.11603+63.9984Z"/>
<path opacity="1" fill-rule="evenodd" fill="#56698f" d="M13.4922+76.3968L30.0963+66.7745L76.0086+66.7745L52.2792+26.1956L52.2792+8.0933L93.5876+76.3968L13.4922+76.3968Z"/>
<path fill-rule="evenodd" opacity="1" fill="#56698f" d="M23.5216+56.706L30.0963+52.0272L52.4961+52.1793L41.6421+33.4251L41.6253+25.9826L59.5005+56.3625L23.5216+56.706Z"/>
<path opacity="1" d="M31.4531+50.219L32.2582+48.7188L50.8734+48.7672L51.5303+50.2963L31.4531+50.219Z" fill-rule="evenodd" fill="#56698f"/>
<path fill="#56698f" opacity="1" fill-rule="evenodd" d="M33.0044+47.4988C33.17+47.5242+33.652+46.0176+33.652+46.0176L49.7033+46.0176L49.9838+47.5095"/>
<path fill="#56698f" opacity="1" fill-rule="evenodd" d="M34.5775+44.8582L35.0743+43.3944L48.3013+43.3944L48.7268+44.8582L34.5775+44.8582Z"/>
<path d="M35.906+42.1633L36.5035+40.547L47.2484+40.547L47.778+42.1633L35.906+42.1633Z" fill-rule="evenodd" fill="#56698f" opacity="1"/>
<path d="M37.4311+39.3497L37.9632+37.6291L40.0491+37.6291L40.0491+39.3497L37.4311+39.3497Z" fill-rule="evenodd" fill="#56698f" opacity="1"/>
<path fill="#56698f" opacity="1" fill-rule="evenodd" d="M42.3124+37.6291L42.3211+39.3497L45.786+39.3497L45.5586+37.6291L42.3124+37.6291Z"/>
<path fill-rule="evenodd" fill="#56698f" d="M39.2069+36.3953L39.7312+34.9428L43.2611+34.9428L44.2429+36.3953L39.2069+36.3953Z" opacity="1"/>
<path opacity="1" fill-rule="evenodd" d="M264.153+42.1633L282.018+76.3968L282.018+42.1633L264.153+42.1633Z" fill="#e31e24"/>
<path d="M76.4047+34.9428L79.4803+39.3497L88.7757+39.3497L282.018+39.3497L282.018+34.9428L76.4047+34.9428Z" fill-rule="evenodd" opacity="1" fill="#e31e24"/>
<path opacity="1" fill-rule="evenodd" fill="#e31e24" d="M285.461+20.24L285.741+38.312L296.967+38.4104"/>
<path d="M145.71+52.0272L142.101+61.2042L149.147+61.2232L145.683+52.0272" fill="#56698f" opacity="1" fill-rule="evenodd"/>
<path fill-rule="evenodd" d="M163.839+60.6913L163.831+67.9244L169.848+67.8517L169.657+60.7409" fill="#56698f" opacity="1"/>
<path fill-rule="evenodd" d="M163.844+51.1377L163.856+57.4638L166.039+57.4705C166.039+57.4705+168.649+57.4888+168.912+57.4794C169.176+57.4699+168.731+56.6904+168.731+56.6904L168.681+52.5308C168.681+52.5308+168.722+51.0013+168.76+51.1377" opacity="1" fill="#56698f"/>
<path opacity="1" fill-rule="evenodd" fill="#56698f" d="M169.639+60.7452C171.01+60.7452+172.67+62.3942+172.67+63.8782L172.67+65.2871C172.67+66.7712+169.311+68.8388+169.311+67.3548L168.805+64.63C168.805+63.146+169.639+60.7452+169.639+60.7452Z"/>
<path d="M168.408+51.1377C169.837+51.1377+171.08+52.4648+171.08+54.1487L171.067+55.1143C171.067+55.974+170.175+57.1496+168.928+57.4761C168.721+57.5302+168.352+57.2584+168.139+57.2916C167.121+57.4506+166.084+57.3974+165.506+57.3974C165.506+57.3974+166.471+55.8127+166.471+54.1288L166.471+53.2313C166.471+51.5475+168.408+51.1377+168.408+51.1377Z" fill="#56698f" opacity="1" fill-rule="evenodd"/>
<path opacity="1" fill="#ffffff" fill-rule="evenodd" d="M228.231+70.9343L232.601+70.9343L235.747+63.9984L245.889+63.9984L249.027+70.951L253.772+70.9343L243.086+47.5242L238.633+47.5242L228.231+70.9343Z"/>
<path opacity="1" d="M240.698+51.5402L237.09+60.7173L244.136+60.7363L243.325+58.5837L240.672+51.5402" fill-rule="evenodd" fill="#56698f"/>
<!-- </g> -->
</svg>
